# xmcd
#
# Track frame offsets:
#	150
#	14495
#	33595
#	51897
#	59842
#	74442
#	101375
#	123242
#	133492
#	156995
#
# Disc length: 2333 seconds
#
# Revision: 0
# Processed by: cddbd v1.5.1PL0 Copyright (c) Steve Scherf et al.
# Submitted via: dBpowerAMP V4.0
#
DISCID=97091b0a
DTITLE=Eric Burdon - Beast of Burdon
DYEAR=1900
DGENRE=blues
TTITLE0=dey won´t
TTITLE1=wall of silence
TTITLE2=streetwalker
TTITLE3=lights out
TTITLE4=it hurts me too
TTITLE5=bird on the beach
TTITLE6=take it easy
TTITLE7=crawling,king,snake
TTITLE8=no more elmore
TTITLE9=the road
EXTD=
EXTT0=
EXTT1=
EXTT2=
EXTT3=
EXTT4=
EXTT5=
EXTT6=
EXTT7=
EXTT8=
EXTT9=
PLAYORDER=
